# xmcd
#
# Track frame offsets: 
#        150
#        7900
#        25023
#        45866
#        86213
#        105621
#        140420
#        156770
#        186536
#        208185
#        224218
#        262437
#        303554
#        315575
#
# Disc length: 4579 seconds
#
# Revision: 0
# Processed by: cddbd v1.5.2PL0 Copyright (c) Steve Scherf et al.
# Submitted via: ExactAudioCopy v0.95b4
#
DISCID=cd11e10e
DTITLE=Harpdog Brown and the Bloodhounds - Unleashed
DYEAR=1995
DGENRE=Blues
TTITLE0=Roller Coaster
TTITLE1=I Had My Fun
TTITLE2=Everything Gonna Be Alright
TTITLE3=Blue Light
TTITLE4=My Kinda Baby
TTITLE5=19 Years Old
TTITLE6=Cakewalk
TTITLE7=Atlanta Moan
TTITLE8=Everyday Blues
TTITLE9=Down Boy Down
TTITLE10=9 Below Zero
TTITLE11=Eyes Like a Cat
TTITLE12=Willie's Boogie
TTITLE13=Relaxed
EXTD=
EXTT0=
EXTT1=
EXTT2=
EXTT3=
EXTT4=
EXTT5=
EXTT6=
EXTT7=
EXTT8=
EXTT9=
EXTT10=
EXTT11=
EXTT12=
EXTT13=
PLAYORDER=
